<mxfile host="drawio-plugin" modified="2022-12-16T14:03:57.485Z" agent="5.0 (Macintosh; Intel Mac OS X 10_15_7) AppleWebKit/537.36 (KHTML, like Gecko) Chrome/98.0.4758.102 Safari/537.36" etag="ReWlM4AxuBFu3hraoMoB" version="20.5.3" type="embed"><diagram id="C5RBs43oDa-KdzZeNtuy" name="Page-1"><mxGraphModel dx="897" dy="1666" grid="1" gridSize="10" guides="1" tooltips="1" connect="1" arrows="1" fold="1" page="1" pageScale="1" pageWidth="827" pageHeight="1169" math="0" shadow="0"><root><mxCell id="WIyWlLk6GJQsqaUBKTNV-0"/><mxCell id="WIyWlLk6GJQsqaUBKTNV-1" parent="WIyWlLk6GJQsqaUBKTNV-0"/><mxCell id="zkfFHV4jXpPFQw0GAbJ--0" value="&lt;&lt;Interface&gt;&gt; &#10;MarketpaceHarvester" style="swimlane;fontStyle=2;align=center;verticalAlign=top;childLayout=stackLayout;horizontal=1;startSize=40;horizontalStack=0;resizeParent=1;resizeLast=0;collapsible=1;marginBottom=0;rounded=0;shadow=0;strokeWidth=1;" parent="WIyWlLk6GJQsqaUBKTNV-1" vertex="1"><mxGeometry x="40" y="40" width="480" height="120" as="geometry"><mxRectangle x="230" y="140" width="160" height="26" as="alternateBounds"/></mxGeometry></mxCell><mxCell id="zkfFHV4jXpPFQw0GAbJ--3" value=" " style="text;align=left;verticalAlign=top;spacingLeft=4;spacingRight=4;overflow=hidden;rotatable=0;points=[[0,0.5],[1,0.5]];portConstraint=eastwest;rounded=0;shadow=0;html=0;" parent="zkfFHV4jXpPFQw0GAbJ--0" vertex="1"><mxGeometry y="40" width="480" height="26" as="geometry"/></mxCell><mxCell id="zkfFHV4jXpPFQw0GAbJ--4" value="" style="line;html=1;strokeWidth=1;align=left;verticalAlign=middle;spacingTop=-1;spacingLeft=3;spacingRight=3;rotatable=0;labelPosition=right;points=[];portConstraint=eastwest;" parent="zkfFHV4jXpPFQw0GAbJ--0" vertex="1"><mxGeometry y="66" width="480" height="8" as="geometry"/></mxCell><mxCell id="zkfFHV4jXpPFQw0GAbJ--5" value="parseTarget(String term, int numItems, Long customerId) : List &lt;MarketplaceDetction&gt;" style="text;align=left;verticalAlign=top;spacingLeft=4;spacingRight=4;overflow=hidden;rotatable=0;points=[[0,0.5],[1,0.5]];portConstraint=eastwest;" parent="zkfFHV4jXpPFQw0GAbJ--0" vertex="1"><mxGeometry y="74" width="480" height="26" as="geometry"/></mxCell><mxCell id="zkfFHV4jXpPFQw0GAbJ--6" value="AbstractAmazonHarvester" style="swimlane;fontStyle=0;align=center;verticalAlign=top;childLayout=stackLayout;horizontal=1;startSize=40;horizontalStack=0;resizeParent=1;resizeLast=0;collapsible=1;marginBottom=0;rounded=0;shadow=0;strokeWidth=1;" parent="WIyWlLk6GJQsqaUBKTNV-1" vertex="1"><mxGeometry x="40" y="620" width="410" height="256" as="geometry"><mxRectangle x="130" y="380" width="160" height="26" as="alternateBounds"/></mxGeometry></mxCell><mxCell id="zkfFHV4jXpPFQw0GAbJ--7" value="userAgent: String" style="text;align=left;verticalAlign=top;spacingLeft=4;spacingRight=4;overflow=hidden;rotatable=0;points=[[0,0.5],[1,0.5]];portConstraint=eastwest;" parent="zkfFHV4jXpPFQw0GAbJ--6" vertex="1"><mxGeometry y="40" width="410" height="26" as="geometry"/></mxCell><mxCell id="zkfFHV4jXpPFQw0GAbJ--9" value="" style="line;html=1;strokeWidth=1;align=left;verticalAlign=middle;spacingTop=-1;spacingLeft=3;spacingRight=3;rotatable=0;labelPosition=right;points=[];portConstraint=eastwest;" parent="zkfFHV4jXpPFQw0GAbJ--6" vertex="1"><mxGeometry y="66" width="410" height="8" as="geometry"/></mxCell><mxCell id="zkfFHV4jXpPFQw0GAbJ--10" value="# parseTarget(Document doc, int numItems, Long customerId):  List &lt;MarketplaceDetction&gt;" style="text;align=left;verticalAlign=top;spacingLeft=4;spacingRight=4;overflow=hidden;rotatable=0;points=[[0,0.5],[1,0.5]];portConstraint=eastwest;fontStyle=0" parent="zkfFHV4jXpPFQw0GAbJ--6" vertex="1"><mxGeometry y="74" width="410" height="26" as="geometry"/></mxCell><mxCell id="zkfFHV4jXpPFQw0GAbJ--11" value="+ harvest(String searchTerm)" style="text;align=left;verticalAlign=top;spacingLeft=4;spacingRight=4;overflow=hidden;rotatable=0;points=[[0,0.5],[1,0.5]];portConstraint=eastwest;" parent="zkfFHV4jXpPFQw0GAbJ--6" vertex="1"><mxGeometry y="100" width="410" height="26" as="geometry"/></mxCell><mxCell id="KQfQFiuWQVvw3QSnPw0U-102" value="+ getSearchTerm(String searchTerm): String" style="text;align=left;verticalAlign=top;spacingLeft=4;spacingRight=4;overflow=hidden;rotatable=0;points=[[0,0.5],[1,0.5]];portConstraint=eastwest;" parent="zkfFHV4jXpPFQw0GAbJ--6" vertex="1"><mxGeometry y="126" width="410" height="26" as="geometry"/></mxCell><mxCell id="KQfQFiuWQVvw3QSnPw0U-101" value="+ getPaidSearch(Element productEntry): String" style="text;align=left;verticalAlign=top;spacingLeft=4;spacingRight=4;overflow=hidden;rotatable=0;points=[[0,0.5],[1,0.5]];portConstraint=eastwest;" parent="zkfFHV4jXpPFQw0GAbJ--6" vertex="1"><mxGeometry y="152" width="410" height="26" as="geometry"/></mxCell><mxCell id="KQfQFiuWQVvw3QSnPw0U-100" value="+ getDescription(String poductUrl, String userAgent): String" style="text;align=left;verticalAlign=top;spacingLeft=4;spacingRight=4;overflow=hidden;rotatable=0;points=[[0,0.5],[1,0.5]];portConstraint=eastwest;" parent="zkfFHV4jXpPFQw0GAbJ--6" vertex="1"><mxGeometry y="178" width="410" height="26" as="geometry"/></mxCell><mxCell id="KQfQFiuWQVvw3QSnPw0U-104" value="+ getDescription(Document doc): String" style="text;align=left;verticalAlign=top;spacingLeft=4;spacingRight=4;overflow=hidden;rotatable=0;points=[[0,0.5],[1,0.5]];portConstraint=eastwest;" parent="zkfFHV4jXpPFQw0GAbJ--6" vertex="1"><mxGeometry y="204" width="410" height="26" as="geometry"/></mxCell><mxCell id="KQfQFiuWQVvw3QSnPw0U-103" value="+ getDate(): String" style="text;align=left;verticalAlign=top;spacingLeft=4;spacingRight=4;overflow=hidden;rotatable=0;points=[[0,0.5],[1,0.5]];portConstraint=eastwest;" parent="zkfFHV4jXpPFQw0GAbJ--6" vertex="1"><mxGeometry y="230" width="410" height="26" as="geometry"/></mxCell><mxCell id="zkfFHV4jXpPFQw0GAbJ--13" value="MarketplaceDetectionItem" style="swimlane;fontStyle=0;align=center;verticalAlign=top;childLayout=stackLayout;horizontal=1;startSize=26;horizontalStack=0;resizeParent=1;resizeLast=0;collapsible=1;marginBottom=0;rounded=0;shadow=0;strokeWidth=1;" parent="WIyWlLk6GJQsqaUBKTNV-1" vertex="1"><mxGeometry x="1920" y="820" width="200" height="684" as="geometry"><mxRectangle x="340" y="380" width="170" height="26" as="alternateBounds"/></mxGeometry></mxCell><mxCell id="zkfFHV4jXpPFQw0GAbJ--14" value="- title: String" style="text;align=left;verticalAlign=top;spacingLeft=4;spacingRight=4;overflow=hidden;rotatable=0;points=[[0,0.5],[1,0.5]];portConstraint=eastwest;" parent="zkfFHV4jXpPFQw0GAbJ--13" vertex="1"><mxGeometry y="26" width="200" height="26" as="geometry"/></mxCell><mxCell id="KQfQFiuWQVvw3QSnPw0U-111" value="- description: String" style="text;align=left;verticalAlign=top;spacingLeft=4;spacingRight=4;overflow=hidden;rotatable=0;points=[[0,0.5],[1,0.5]];portConstraint=eastwest;" parent="zkfFHV4jXpPFQw0GAbJ--13" vertex="1"><mxGeometry y="52" width="200" height="26" as="geometry"/></mxCell><mxCell id="KQfQFiuWQVvw3QSnPw0U-112" value="- url: String" style="text;align=left;verticalAlign=top;spacingLeft=4;spacingRight=4;overflow=hidden;rotatable=0;points=[[0,0.5],[1,0.5]];portConstraint=eastwest;" parent="zkfFHV4jXpPFQw0GAbJ--13" vertex="1"><mxGeometry y="78" width="200" height="26" as="geometry"/></mxCell><mxCell id="KQfQFiuWQVvw3QSnPw0U-110" value="- imageUrl: String" style="text;align=left;verticalAlign=top;spacingLeft=4;spacingRight=4;overflow=hidden;rotatable=0;points=[[0,0.5],[1,0.5]];portConstraint=eastwest;" parent="zkfFHV4jXpPFQw0GAbJ--13" vertex="1"><mxGeometry y="104" width="200" height="26" as="geometry"/></mxCell><mxCell id="KQfQFiuWQVvw3QSnPw0U-113" value="- order: Integer" style="text;align=left;verticalAlign=top;spacingLeft=4;spacingRight=4;overflow=hidden;rotatable=0;points=[[0,0.5],[1,0.5]];portConstraint=eastwest;" parent="zkfFHV4jXpPFQw0GAbJ--13" vertex="1"><mxGeometry y="130" width="200" height="26" as="geometry"/></mxCell><mxCell id="KQfQFiuWQVvw3QSnPw0U-109" value="- sponsored: String" style="text;align=left;verticalAlign=top;spacingLeft=4;spacingRight=4;overflow=hidden;rotatable=0;points=[[0,0.5],[1,0.5]];portConstraint=eastwest;" parent="zkfFHV4jXpPFQw0GAbJ--13" vertex="1"><mxGeometry y="156" width="200" height="26" as="geometry"/></mxCell><mxCell id="KQfQFiuWQVvw3QSnPw0U-114" value="- price: String" style="text;align=left;verticalAlign=top;spacingLeft=4;spacingRight=4;overflow=hidden;rotatable=0;points=[[0,0.5],[1,0.5]];portConstraint=eastwest;" parent="zkfFHV4jXpPFQw0GAbJ--13" vertex="1"><mxGeometry y="182" width="200" height="26" as="geometry"/></mxCell><mxCell id="KQfQFiuWQVvw3QSnPw0U-137" value="- state: String" style="text;align=left;verticalAlign=top;spacingLeft=4;spacingRight=4;overflow=hidden;rotatable=0;points=[[0,0.5],[1,0.5]];portConstraint=eastwest;" parent="zkfFHV4jXpPFQw0GAbJ--13" vertex="1"><mxGeometry y="208" width="200" height="26" as="geometry"/></mxCell><mxCell id="KQfQFiuWQVvw3QSnPw0U-138" value="- status: String" style="text;align=left;verticalAlign=top;spacingLeft=4;spacingRight=4;overflow=hidden;rotatable=0;points=[[0,0.5],[1,0.5]];portConstraint=eastwest;" parent="zkfFHV4jXpPFQw0GAbJ--13" vertex="1"><mxGeometry y="234" width="200" height="26" as="geometry"/></mxCell><mxCell id="KQfQFiuWQVvw3QSnPw0U-139" value="- reasonCode: String" style="text;align=left;verticalAlign=top;spacingLeft=4;spacingRight=4;overflow=hidden;rotatable=0;points=[[0,0.5],[1,0.5]];portConstraint=eastwest;" parent="zkfFHV4jXpPFQw0GAbJ--13" vertex="1"><mxGeometry y="260" width="200" height="26" as="geometry"/></mxCell><mxCell id="KQfQFiuWQVvw3QSnPw0U-140" value="- analystId: Long" style="text;align=left;verticalAlign=top;spacingLeft=4;spacingRight=4;overflow=hidden;rotatable=0;points=[[0,0.5],[1,0.5]];portConstraint=eastwest;" parent="zkfFHV4jXpPFQw0GAbJ--13" vertex="1"><mxGeometry y="286" width="200" height="26" as="geometry"/></mxCell><mxCell id="1F-tgHn_0D5CHnwT6YAT-8" value="- customerId: Long" style="text;align=left;verticalAlign=top;spacingLeft=4;spacingRight=4;overflow=hidden;rotatable=0;points=[[0,0.5],[1,0.5]];portConstraint=eastwest;" parent="zkfFHV4jXpPFQw0GAbJ--13" vertex="1"><mxGeometry y="312" width="200" height="26" as="geometry"/></mxCell><mxCell id="zkfFHV4jXpPFQw0GAbJ--15" value="" style="line;html=1;strokeWidth=1;align=left;verticalAlign=middle;spacingTop=-1;spacingLeft=3;spacingRight=3;rotatable=0;labelPosition=right;points=[];portConstraint=eastwest;" parent="zkfFHV4jXpPFQw0GAbJ--13" vertex="1"><mxGeometry y="338" width="200" height="8" as="geometry"/></mxCell><mxCell id="KQfQFiuWQVvw3QSnPw0U-115" value="+ getTitle(): String" style="text;align=left;verticalAlign=top;spacingLeft=4;spacingRight=4;overflow=hidden;rotatable=0;points=[[0,0.5],[1,0.5]];portConstraint=eastwest;" parent="zkfFHV4jXpPFQw0GAbJ--13" vertex="1"><mxGeometry y="346" width="200" height="26" as="geometry"/></mxCell><mxCell id="KQfQFiuWQVvw3QSnPw0U-121" value="+ getPrice(): String" style="text;align=left;verticalAlign=top;spacingLeft=4;spacingRight=4;overflow=hidden;rotatable=0;points=[[0,0.5],[1,0.5]];portConstraint=eastwest;" parent="zkfFHV4jXpPFQw0GAbJ--13" vertex="1"><mxGeometry y="372" width="200" height="26" as="geometry"/></mxCell><mxCell id="KQfQFiuWQVvw3QSnPw0U-120" value="+ getSponsored(): String" style="text;align=left;verticalAlign=top;spacingLeft=4;spacingRight=4;overflow=hidden;rotatable=0;points=[[0,0.5],[1,0.5]];portConstraint=eastwest;" parent="zkfFHV4jXpPFQw0GAbJ--13" vertex="1"><mxGeometry y="398" width="200" height="26" as="geometry"/></mxCell><mxCell id="KQfQFiuWQVvw3QSnPw0U-119" value="+ getOrder(): Integer" style="text;align=left;verticalAlign=top;spacingLeft=4;spacingRight=4;overflow=hidden;rotatable=0;points=[[0,0.5],[1,0.5]];portConstraint=eastwest;" parent="zkfFHV4jXpPFQw0GAbJ--13" vertex="1"><mxGeometry y="424" width="200" height="26" as="geometry"/></mxCell><mxCell id="KQfQFiuWQVvw3QSnPw0U-118" value="+ getImageUrl(): String" style="text;align=left;verticalAlign=top;spacingLeft=4;spacingRight=4;overflow=hidden;rotatable=0;points=[[0,0.5],[1,0.5]];portConstraint=eastwest;" parent="zkfFHV4jXpPFQw0GAbJ--13" vertex="1"><mxGeometry y="450" width="200" height="26" as="geometry"/></mxCell><mxCell id="KQfQFiuWQVvw3QSnPw0U-117" value="+ getUrl(): String" style="text;align=left;verticalAlign=top;spacingLeft=4;spacingRight=4;overflow=hidden;rotatable=0;points=[[0,0.5],[1,0.5]];portConstraint=eastwest;" parent="zkfFHV4jXpPFQw0GAbJ--13" vertex="1"><mxGeometry y="476" width="200" height="26" as="geometry"/></mxCell><mxCell id="KQfQFiuWQVvw3QSnPw0U-141" value="+ getDescription(): String" style="text;align=left;verticalAlign=top;spacingLeft=4;spacingRight=4;overflow=hidden;rotatable=0;points=[[0,0.5],[1,0.5]];portConstraint=eastwest;" parent="zkfFHV4jXpPFQw0GAbJ--13" vertex="1"><mxGeometry y="502" width="200" height="26" as="geometry"/></mxCell><mxCell id="KQfQFiuWQVvw3QSnPw0U-143" value="+ getState(): String" style="text;align=left;verticalAlign=top;spacingLeft=4;spacingRight=4;overflow=hidden;rotatable=0;points=[[0,0.5],[1,0.5]];portConstraint=eastwest;" parent="zkfFHV4jXpPFQw0GAbJ--13" vertex="1"><mxGeometry y="528" width="200" height="26" as="geometry"/></mxCell><mxCell id="KQfQFiuWQVvw3QSnPw0U-142" value="+ getStatus(): String" style="text;align=left;verticalAlign=top;spacingLeft=4;spacingRight=4;overflow=hidden;rotatable=0;points=[[0,0.5],[1,0.5]];portConstraint=eastwest;" parent="zkfFHV4jXpPFQw0GAbJ--13" vertex="1"><mxGeometry y="554" width="200" height="26" as="geometry"/></mxCell><mxCell id="KQfQFiuWQVvw3QSnPw0U-144" value="+ getReasonCode(): String" style="text;align=left;verticalAlign=top;spacingLeft=4;spacingRight=4;overflow=hidden;rotatable=0;points=[[0,0.5],[1,0.5]];portConstraint=eastwest;" parent="zkfFHV4jXpPFQw0GAbJ--13" vertex="1"><mxGeometry y="580" width="200" height="26" as="geometry"/></mxCell><mxCell id="KQfQFiuWQVvw3QSnPw0U-116" value="+ getAnalystId(): Long" style="text;align=left;verticalAlign=top;spacingLeft=4;spacingRight=4;overflow=hidden;rotatable=0;points=[[0,0.5],[1,0.5]];portConstraint=eastwest;" parent="zkfFHV4jXpPFQw0GAbJ--13" vertex="1"><mxGeometry y="606" width="200" height="26" as="geometry"/></mxCell><mxCell id="1F-tgHn_0D5CHnwT6YAT-10" value="+ getCustomertId(): Long" style="text;align=left;verticalAlign=top;spacingLeft=4;spacingRight=4;overflow=hidden;rotatable=0;points=[[0,0.5],[1,0.5]];portConstraint=eastwest;" parent="zkfFHV4jXpPFQw0GAbJ--13" vertex="1"><mxGeometry y="632" width="200" height="26" as="geometry"/></mxCell><mxCell id="KQfQFiuWQVvw3QSnPw0U-7" value="&lt;&lt;Interface&gt;&gt; &#10;MarketplaceDetection" style="swimlane;fontStyle=2;align=center;verticalAlign=top;childLayout=stackLayout;horizontal=1;startSize=40;horizontalStack=0;resizeParent=1;resizeLast=0;collapsible=1;marginBottom=0;rounded=0;shadow=0;strokeWidth=1;" parent="WIyWlLk6GJQsqaUBKTNV-1" vertex="1"><mxGeometry x="1557.5" y="40" width="325" height="500" as="geometry"><mxRectangle x="230" y="140" width="160" height="26" as="alternateBounds"/></mxGeometry></mxCell><mxCell id="KQfQFiuWQVvw3QSnPw0U-10" value=" " style="text;align=left;verticalAlign=top;spacingLeft=4;spacingRight=4;overflow=hidden;rotatable=0;points=[[0,0.5],[1,0.5]];portConstraint=eastwest;rounded=0;shadow=0;html=0;" parent="KQfQFiuWQVvw3QSnPw0U-7" vertex="1"><mxGeometry y="40" width="325" height="26" as="geometry"/></mxCell><mxCell id="KQfQFiuWQVvw3QSnPw0U-11" value="" style="line;html=1;strokeWidth=1;align=left;verticalAlign=middle;spacingTop=-1;spacingLeft=3;spacingRight=3;rotatable=0;labelPosition=right;points=[];portConstraint=eastwest;" parent="KQfQFiuWQVvw3QSnPw0U-7" vertex="1"><mxGeometry y="66" width="325" height="8" as="geometry"/></mxCell><mxCell id="KQfQFiuWQVvw3QSnPw0U-12" value="getTitle(): String" style="text;align=left;verticalAlign=top;spacingLeft=4;spacingRight=4;overflow=hidden;rotatable=0;points=[[0,0.5],[1,0.5]];portConstraint=eastwest;" parent="KQfQFiuWQVvw3QSnPw0U-7" vertex="1"><mxGeometry y="74" width="325" height="26" as="geometry"/></mxCell><mxCell id="KQfQFiuWQVvw3QSnPw0U-97" value="getDescription(): String" style="text;align=left;verticalAlign=top;spacingLeft=4;spacingRight=4;overflow=hidden;rotatable=0;points=[[0,0.5],[1,0.5]];portConstraint=eastwest;" parent="KQfQFiuWQVvw3QSnPw0U-7" vertex="1"><mxGeometry y="100" width="325" height="26" as="geometry"/></mxCell><mxCell id="KQfQFiuWQVvw3QSnPw0U-96" value="getUrl(): String" style="text;align=left;verticalAlign=top;spacingLeft=4;spacingRight=4;overflow=hidden;rotatable=0;points=[[0,0.5],[1,0.5]];portConstraint=eastwest;" parent="KQfQFiuWQVvw3QSnPw0U-7" vertex="1"><mxGeometry y="126" width="325" height="26" as="geometry"/></mxCell><mxCell id="KQfQFiuWQVvw3QSnPw0U-95" value="getImageUrl(): String" style="text;align=left;verticalAlign=top;spacingLeft=4;spacingRight=4;overflow=hidden;rotatable=0;points=[[0,0.5],[1,0.5]];portConstraint=eastwest;" parent="KQfQFiuWQVvw3QSnPw0U-7" vertex="1"><mxGeometry y="152" width="325" height="26" as="geometry"/></mxCell><mxCell id="KQfQFiuWQVvw3QSnPw0U-94" value="getOrder(): Integer" style="text;align=left;verticalAlign=top;spacingLeft=4;spacingRight=4;overflow=hidden;rotatable=0;points=[[0,0.5],[1,0.5]];portConstraint=eastwest;" parent="KQfQFiuWQVvw3QSnPw0U-7" vertex="1"><mxGeometry y="178" width="325" height="26" as="geometry"/></mxCell><mxCell id="KQfQFiuWQVvw3QSnPw0U-93" value="getSponsored(): String" style="text;align=left;verticalAlign=top;spacingLeft=4;spacingRight=4;overflow=hidden;rotatable=0;points=[[0,0.5],[1,0.5]];portConstraint=eastwest;" parent="KQfQFiuWQVvw3QSnPw0U-7" vertex="1"><mxGeometry y="204" width="325" height="26" as="geometry"/></mxCell><mxCell id="KQfQFiuWQVvw3QSnPw0U-92" value="getPrice(): String" style="text;align=left;verticalAlign=top;spacingLeft=4;spacingRight=4;overflow=hidden;rotatable=0;points=[[0,0.5],[1,0.5]];portConstraint=eastwest;" parent="KQfQFiuWQVvw3QSnPw0U-7" vertex="1"><mxGeometry y="230" width="325" height="26" as="geometry"/></mxCell><mxCell id="KQfQFiuWQVvw3QSnPw0U-131" value="getState(): String" style="text;align=left;verticalAlign=top;spacingLeft=4;spacingRight=4;overflow=hidden;rotatable=0;points=[[0,0.5],[1,0.5]];portConstraint=eastwest;" parent="KQfQFiuWQVvw3QSnPw0U-7" vertex="1"><mxGeometry y="256" width="325" height="26" as="geometry"/></mxCell><mxCell id="KQfQFiuWQVvw3QSnPw0U-133" value="getStatus(): String" style="text;align=left;verticalAlign=top;spacingLeft=4;spacingRight=4;overflow=hidden;rotatable=0;points=[[0,0.5],[1,0.5]];portConstraint=eastwest;" parent="KQfQFiuWQVvw3QSnPw0U-7" vertex="1"><mxGeometry y="282" width="325" height="26" as="geometry"/></mxCell><mxCell id="KQfQFiuWQVvw3QSnPw0U-134" value="getReasonCode(): String" style="text;align=left;verticalAlign=top;spacingLeft=4;spacingRight=4;overflow=hidden;rotatable=0;points=[[0,0.5],[1,0.5]];portConstraint=eastwest;" parent="KQfQFiuWQVvw3QSnPw0U-7" vertex="1"><mxGeometry y="308" width="325" height="26" as="geometry"/></mxCell><mxCell id="KQfQFiuWQVvw3QSnPw0U-135" value="getAnalystId(): Long" style="text;align=left;verticalAlign=top;spacingLeft=4;spacingRight=4;overflow=hidden;rotatable=0;points=[[0,0.5],[1,0.5]];portConstraint=eastwest;" parent="KQfQFiuWQVvw3QSnPw0U-7" vertex="1"><mxGeometry y="334" width="325" height="26" as="geometry"/></mxCell><mxCell id="1F-tgHn_0D5CHnwT6YAT-7" value="getCustomertId(): Long" style="text;align=left;verticalAlign=top;spacingLeft=4;spacingRight=4;overflow=hidden;rotatable=0;points=[[0,0.5],[1,0.5]];portConstraint=eastwest;" parent="KQfQFiuWQVvw3QSnPw0U-7" vertex="1"><mxGeometry y="360" width="325" height="26" as="geometry"/></mxCell><mxCell id="KQfQFiuWQVvw3QSnPw0U-13" value="AbstractHarvesterJsoup" style="swimlane;fontStyle=0;align=center;verticalAlign=top;childLayout=stackLayout;horizontal=1;startSize=40;horizontalStack=0;resizeParent=1;resizeLast=0;collapsible=1;marginBottom=0;rounded=0;shadow=0;strokeWidth=1;" parent="WIyWlLk6GJQsqaUBKTNV-1" vertex="1"><mxGeometry x="40" y="320" width="450" height="190" as="geometry"><mxRectangle x="130" y="380" width="160" height="26" as="alternateBounds"/></mxGeometry></mxCell><mxCell id="KQfQFiuWQVvw3QSnPw0U-14" value="- baseUrl: String" style="text;align=left;verticalAlign=top;spacingLeft=4;spacingRight=4;overflow=hidden;rotatable=0;points=[[0,0.5],[1,0.5]];portConstraint=eastwest;" parent="KQfQFiuWQVvw3QSnPw0U-13" vertex="1"><mxGeometry y="40" width="450" height="26" as="geometry"/></mxCell><mxCell id="KQfQFiuWQVvw3QSnPw0U-15" value="- userAgent: String" style="text;align=left;verticalAlign=top;spacingLeft=4;spacingRight=4;overflow=hidden;rotatable=0;points=[[0,0.5],[1,0.5]];portConstraint=eastwest;rounded=0;shadow=0;html=0;" parent="KQfQFiuWQVvw3QSnPw0U-13" vertex="1"><mxGeometry y="66" width="450" height="26" as="geometry"/></mxCell><mxCell id="KQfQFiuWQVvw3QSnPw0U-16" value="" style="line;html=1;strokeWidth=1;align=left;verticalAlign=middle;spacingTop=-1;spacingLeft=3;spacingRight=3;rotatable=0;labelPosition=right;points=[];portConstraint=eastwest;" parent="KQfQFiuWQVvw3QSnPw0U-13" vertex="1"><mxGeometry y="92" width="450" height="8" as="geometry"/></mxCell><mxCell id="KQfQFiuWQVvw3QSnPw0U-17" value="+ parseTarget(String searchTerm, int numItems, Long customerId):  List &lt;MarketplaceDetction&gt;" style="text;align=left;verticalAlign=top;spacingLeft=4;spacingRight=4;overflow=hidden;rotatable=0;points=[[0,0.5],[1,0.5]];portConstraint=eastwest;fontStyle=0" parent="KQfQFiuWQVvw3QSnPw0U-13" vertex="1"><mxGeometry y="100" width="450" height="26" as="geometry"/></mxCell><mxCell id="KQfQFiuWQVvw3QSnPw0U-18" value="+ parseTargetTest(String searchTerm, int numItems, Long customerId):  List &lt;MarketplaceDetction&gt;" style="text;align=left;verticalAlign=top;spacingLeft=4;spacingRight=4;overflow=hidden;rotatable=0;points=[[0,0.5],[1,0.5]];portConstraint=eastwest;" parent="KQfQFiuWQVvw3QSnPw0U-13" vertex="1"><mxGeometry y="126" width="450" height="26" as="geometry"/></mxCell><mxCell id="KQfQFiuWQVvw3QSnPw0U-99" value="# parseTarget(Document doc, int numItems, Long customerId):  List &lt;MarketplaceDetction&gt;" style="text;align=left;verticalAlign=top;spacingLeft=4;spacingRight=4;overflow=hidden;rotatable=0;points=[[0,0.5],[1,0.5]];portConstraint=eastwest;fontStyle=0" parent="KQfQFiuWQVvw3QSnPw0U-13" vertex="1"><mxGeometry y="152" width="450" height="26" as="geometry"/></mxCell><mxCell id="KQfQFiuWQVvw3QSnPw0U-19" value="AbstractAmazonEUHarvester" style="swimlane;fontStyle=0;align=center;verticalAlign=top;childLayout=stackLayout;horizontal=1;startSize=40;horizontalStack=0;resizeParent=1;resizeLast=0;collapsible=1;marginBottom=0;rounded=0;shadow=0;strokeWidth=1;" parent="WIyWlLk6GJQsqaUBKTNV-1" vertex="1"><mxGeometry x="500" y="320" width="390" height="110" as="geometry"><mxRectangle x="130" y="380" width="160" height="26" as="alternateBounds"/></mxGeometry></mxCell><mxCell id="KQfQFiuWQVvw3QSnPw0U-20" value="- baseUrl: String" style="text;align=left;verticalAlign=top;spacingLeft=4;spacingRight=4;overflow=hidden;rotatable=0;points=[[0,0.5],[1,0.5]];portConstraint=eastwest;" parent="KQfQFiuWQVvw3QSnPw0U-19" vertex="1"><mxGeometry y="40" width="390" height="26" as="geometry"/></mxCell><mxCell id="KQfQFiuWQVvw3QSnPw0U-22" value="" style="line;html=1;strokeWidth=1;align=left;verticalAlign=middle;spacingTop=-1;spacingLeft=3;spacingRight=3;rotatable=0;labelPosition=right;points=[];portConstraint=eastwest;" parent="KQfQFiuWQVvw3QSnPw0U-19" vertex="1"><mxGeometry y="66" width="390" height="8" as="geometry"/></mxCell><mxCell id="KQfQFiuWQVvw3QSnPw0U-23" value="+ parseTarget(String term, int numItems, Long customerId):  List &lt;MarketplaceDetction&gt;" style="text;align=left;verticalAlign=top;spacingLeft=4;spacingRight=4;overflow=hidden;rotatable=0;points=[[0,0.5],[1,0.5]];portConstraint=eastwest;fontStyle=0" parent="KQfQFiuWQVvw3QSnPw0U-19" vertex="1"><mxGeometry y="74" width="390" height="26" as="geometry"/></mxCell><mxCell id="KQfQFiuWQVvw3QSnPw0U-25" value="AbstractEbayHarvester" style="swimlane;fontStyle=0;align=center;verticalAlign=top;childLayout=stackLayout;horizontal=1;startSize=40;horizontalStack=0;resizeParent=1;resizeLast=0;collapsible=1;marginBottom=0;rounded=0;shadow=0;strokeWidth=1;" parent="WIyWlLk6GJQsqaUBKTNV-1" vertex="1"><mxGeometry x="900" y="320" width="610" height="270" as="geometry"><mxRectangle x="130" y="380" width="160" height="26" as="alternateBounds"/></mxGeometry></mxCell><mxCell id="KQfQFiuWQVvw3QSnPw0U-26" value="dynamic: EbayDynamicClass" style="text;align=left;verticalAlign=top;spacingLeft=4;spacingRight=4;overflow=hidden;rotatable=0;points=[[0,0.5],[1,0.5]];portConstraint=eastwest;" parent="KQfQFiuWQVvw3QSnPw0U-25" vertex="1"><mxGeometry y="40" width="610" height="26" as="geometry"/></mxCell><mxCell id="KQfQFiuWQVvw3QSnPw0U-27" value="- baseUrl: String" style="text;align=left;verticalAlign=top;spacingLeft=4;spacingRight=4;overflow=hidden;rotatable=0;points=[[0,0.5],[1,0.5]];portConstraint=eastwest;rounded=0;shadow=0;html=0;" parent="KQfQFiuWQVvw3QSnPw0U-25" vertex="1"><mxGeometry y="66" width="610" height="26" as="geometry"/></mxCell><mxCell id="KQfQFiuWQVvw3QSnPw0U-28" value="" style="line;html=1;strokeWidth=1;align=left;verticalAlign=middle;spacingTop=-1;spacingLeft=3;spacingRight=3;rotatable=0;labelPosition=right;points=[];portConstraint=eastwest;" parent="KQfQFiuWQVvw3QSnPw0U-25" vertex="1"><mxGeometry y="92" width="610" height="8" as="geometry"/></mxCell><mxCell id="KQfQFiuWQVvw3QSnPw0U-29" value="+ parseTarget(String term, int numItems, Long customerId):  List &lt;MarketplaceDetction&gt;" style="text;align=left;verticalAlign=top;spacingLeft=4;spacingRight=4;overflow=hidden;rotatable=0;points=[[0,0.5],[1,0.5]];portConstraint=eastwest;fontStyle=0" parent="KQfQFiuWQVvw3QSnPw0U-25" vertex="1"><mxGeometry y="100" width="610" height="26" as="geometry"/></mxCell><mxCell id="KQfQFiuWQVvw3QSnPw0U-30" value="+ parseTargetInternalHtmlUnit(String term, int numItems, Long customerId):  List &lt;MarketplaceDetction&gt;" style="text;align=left;verticalAlign=top;spacingLeft=4;spacingRight=4;overflow=hidden;rotatable=0;points=[[0,0.5],[1,0.5]];portConstraint=eastwest;" parent="KQfQFiuWQVvw3QSnPw0U-25" vertex="1"><mxGeometry y="126" width="610" height="26" as="geometry"/></mxCell><mxCell id="KQfQFiuWQVvw3QSnPw0U-105" value="# getElementsHtmlUnit(HtmlPage page):  List &lt;HtmlElement&gt;" style="text;align=left;verticalAlign=top;spacingLeft=4;spacingRight=4;overflow=hidden;rotatable=0;points=[[0,0.5],[1,0.5]];portConstraint=eastwest;" parent="KQfQFiuWQVvw3QSnPw0U-25" vertex="1"><mxGeometry y="152" width="610" height="26" as="geometry"/></mxCell><mxCell id="KQfQFiuWQVvw3QSnPw0U-106" value="# parseSponsoredClassNameFromListing(HtmlElement src, HashMap&lt;String, Integer&gt; sponsoredClassNames)" style="text;align=left;verticalAlign=top;spacingLeft=4;spacingRight=4;overflow=hidden;rotatable=0;points=[[0,0.5],[1,0.5]];portConstraint=eastwest;" parent="KQfQFiuWQVvw3QSnPw0U-25" vertex="1"><mxGeometry y="178" width="610" height="26" as="geometry"/></mxCell><mxCell id="KQfQFiuWQVvw3QSnPw0U-107" value="# createDetectionHtmlUnit(HtmlElement src, int index, String sponsoredClassName, Long customerId): MarketplaceDetection" style="text;align=left;verticalAlign=top;spacingLeft=4;spacingRight=4;overflow=hidden;rotatable=0;points=[[0,0.5],[1,0.5]];portConstraint=eastwest;" parent="KQfQFiuWQVvw3QSnPw0U-25" vertex="1"><mxGeometry y="204" width="610" height="26" as="geometry"/></mxCell><mxCell id="KQfQFiuWQVvw3QSnPw0U-108" value="- getWebClient(): WebClient" style="text;align=left;verticalAlign=top;spacingLeft=4;spacingRight=4;overflow=hidden;rotatable=0;points=[[0,0.5],[1,0.5]];portConstraint=eastwest;" parent="KQfQFiuWQVvw3QSnPw0U-25" vertex="1"><mxGeometry y="230" width="610" height="26" as="geometry"/></mxCell><mxCell id="KQfQFiuWQVvw3QSnPw0U-31" value="" style="endArrow=block;dashed=1;endFill=0;endSize=12;html=1;rounded=0;exitX=0.5;exitY=0;exitDx=0;exitDy=0;entryX=0.25;entryY=1;entryDx=0;entryDy=0;" parent="WIyWlLk6GJQsqaUBKTNV-1" source="KQfQFiuWQVvw3QSnPw0U-13" target="zkfFHV4jXpPFQw0GAbJ--0" edge="1"><mxGeometry width="160" relative="1" as="geometry"><mxPoint x="80" y="290" as="sourcePoint"/><mxPoint x="180" y="180" as="targetPoint"/></mxGeometry></mxCell><mxCell id="KQfQFiuWQVvw3QSnPw0U-39" value="Implements" style="edgeLabel;html=1;align=center;verticalAlign=middle;resizable=0;points=[];" parent="KQfQFiuWQVvw3QSnPw0U-31" vertex="1" connectable="0"><mxGeometry x="-0.1287" y="-2" relative="1" as="geometry"><mxPoint as="offset"/></mxGeometry></mxCell><mxCell id="KQfQFiuWQVvw3QSnPw0U-36" value="" style="endArrow=block;dashed=1;endFill=0;endSize=12;html=1;rounded=0;exitX=0.5;exitY=0;exitDx=0;exitDy=0;entryX=0.5;entryY=1;entryDx=0;entryDy=0;" parent="WIyWlLk6GJQsqaUBKTNV-1" source="KQfQFiuWQVvw3QSnPw0U-19" target="zkfFHV4jXpPFQw0GAbJ--0" edge="1"><mxGeometry width="160" relative="1" as="geometry"><mxPoint x="150" y="330" as="sourcePoint"/><mxPoint x="122.5" y="192" as="targetPoint"/></mxGeometry></mxCell><mxCell id="KQfQFiuWQVvw3QSnPw0U-40" value="Implements" style="edgeLabel;html=1;align=center;verticalAlign=middle;resizable=0;points=[];" parent="KQfQFiuWQVvw3QSnPw0U-36" vertex="1" connectable="0"><mxGeometry x="-0.1058" y="-3" relative="1" as="geometry"><mxPoint as="offset"/></mxGeometry></mxCell><mxCell id="KQfQFiuWQVvw3QSnPw0U-37" value="" style="endArrow=block;dashed=1;endFill=0;endSize=12;html=1;rounded=0;exitX=0.5;exitY=0;exitDx=0;exitDy=0;entryX=0.75;entryY=1;entryDx=0;entryDy=0;" parent="WIyWlLk6GJQsqaUBKTNV-1" source="KQfQFiuWQVvw3QSnPw0U-25" target="zkfFHV4jXpPFQw0GAbJ--0" edge="1"><mxGeometry width="160" relative="1" as="geometry"><mxPoint x="555" y="338" as="sourcePoint"/><mxPoint x="380" y="200" as="targetPoint"/></mxGeometry></mxCell><mxCell id="KQfQFiuWQVvw3QSnPw0U-41" value="Implements" style="edgeLabel;html=1;align=center;verticalAlign=middle;resizable=0;points=[];" parent="KQfQFiuWQVvw3QSnPw0U-37" vertex="1" connectable="0"><mxGeometry x="-0.0524" y="-1" relative="1" as="geometry"><mxPoint as="offset"/></mxGeometry></mxCell><mxCell id="KQfQFiuWQVvw3QSnPw0U-38" value="Extends" style="endArrow=block;endSize=16;endFill=0;html=1;rounded=0;exitX=0.5;exitY=0;exitDx=0;exitDy=0;entryX=0.5;entryY=1;entryDx=0;entryDy=0;" parent="WIyWlLk6GJQsqaUBKTNV-1" source="zkfFHV4jXpPFQw0GAbJ--6" target="KQfQFiuWQVvw3QSnPw0U-13" edge="1"><mxGeometry width="160" relative="1" as="geometry"><mxPoint x="75" y="610" as="sourcePoint"/><mxPoint x="235" y="610" as="targetPoint"/></mxGeometry></mxCell><mxCell id="KQfQFiuWQVvw3QSnPw0U-42" value="AmazonUKHarvester" style="swimlane;fontStyle=0;align=center;verticalAlign=top;childLayout=stackLayout;horizontal=1;startSize=40;horizontalStack=0;resizeParent=1;resizeLast=0;collapsible=1;marginBottom=0;rounded=0;shadow=0;strokeWidth=1;" parent="WIyWlLk6GJQsqaUBKTNV-1" vertex="1"><mxGeometry x="40" y="940" width="160" height="110" as="geometry"><mxRectangle x="130" y="380" width="160" height="26" as="alternateBounds"/></mxGeometry></mxCell><mxCell id="KQfQFiuWQVvw3QSnPw0U-43" value=" " style="text;align=left;verticalAlign=top;spacingLeft=4;spacingRight=4;overflow=hidden;rotatable=0;points=[[0,0.5],[1,0.5]];portConstraint=eastwest;" parent="KQfQFiuWQVvw3QSnPw0U-42" vertex="1"><mxGeometry y="40" width="160" height="26" as="geometry"/></mxCell><mxCell id="KQfQFiuWQVvw3QSnPw0U-45" value="" style="line;html=1;strokeWidth=1;align=left;verticalAlign=middle;spacingTop=-1;spacingLeft=3;spacingRight=3;rotatable=0;labelPosition=right;points=[];portConstraint=eastwest;" parent="KQfQFiuWQVvw3QSnPw0U-42" vertex="1"><mxGeometry y="66" width="160" height="8" as="geometry"/></mxCell><mxCell id="KQfQFiuWQVvw3QSnPw0U-48" value="AmazonUSHarvester" style="swimlane;fontStyle=0;align=center;verticalAlign=top;childLayout=stackLayout;horizontal=1;startSize=40;horizontalStack=0;resizeParent=1;resizeLast=0;collapsible=1;marginBottom=0;rounded=0;shadow=0;strokeWidth=1;" parent="WIyWlLk6GJQsqaUBKTNV-1" vertex="1"><mxGeometry x="210" y="940" width="150" height="110" as="geometry"><mxRectangle x="130" y="380" width="160" height="26" as="alternateBounds"/></mxGeometry></mxCell><mxCell id="KQfQFiuWQVvw3QSnPw0U-49" value=" " style="text;align=left;verticalAlign=top;spacingLeft=4;spacingRight=4;overflow=hidden;rotatable=0;points=[[0,0.5],[1,0.5]];portConstraint=eastwest;" parent="KQfQFiuWQVvw3QSnPw0U-48" vertex="1"><mxGeometry y="40" width="150" height="26" as="geometry"/></mxCell><mxCell id="KQfQFiuWQVvw3QSnPw0U-51" value="" style="line;html=1;strokeWidth=1;align=left;verticalAlign=middle;spacingTop=-1;spacingLeft=3;spacingRight=3;rotatable=0;labelPosition=right;points=[];portConstraint=eastwest;" parent="KQfQFiuWQVvw3QSnPw0U-48" vertex="1"><mxGeometry y="66" width="150" height="8" as="geometry"/></mxCell><mxCell id="KQfQFiuWQVvw3QSnPw0U-54" value="Extends" style="endArrow=block;endSize=16;endFill=0;html=1;rounded=0;exitX=0.5;exitY=0;exitDx=0;exitDy=0;entryX=0.25;entryY=1;entryDx=0;entryDy=0;" parent="WIyWlLk6GJQsqaUBKTNV-1" source="KQfQFiuWQVvw3QSnPw0U-42" target="zkfFHV4jXpPFQw0GAbJ--6" edge="1"><mxGeometry width="160" relative="1" as="geometry"><mxPoint x="120" y="1040" as="sourcePoint"/><mxPoint x="120" y="900" as="targetPoint"/></mxGeometry></mxCell><mxCell id="KQfQFiuWQVvw3QSnPw0U-55" value="Extends" style="endArrow=block;endSize=16;endFill=0;html=1;rounded=0;exitX=0.5;exitY=0;exitDx=0;exitDy=0;entryX=0.75;entryY=1;entryDx=0;entryDy=0;" parent="WIyWlLk6GJQsqaUBKTNV-1" source="KQfQFiuWQVvw3QSnPw0U-48" target="zkfFHV4jXpPFQw0GAbJ--6" edge="1"><mxGeometry width="160" relative="1" as="geometry"><mxPoint x="340" y="990" as="sourcePoint"/><mxPoint x="340" y="850" as="targetPoint"/></mxGeometry></mxCell><mxCell id="KQfQFiuWQVvw3QSnPw0U-56" value="AmazonESHarvester" style="swimlane;fontStyle=0;align=center;verticalAlign=top;childLayout=stackLayout;horizontal=1;startSize=40;horizontalStack=0;resizeParent=1;resizeLast=0;collapsible=1;marginBottom=0;rounded=0;shadow=0;strokeWidth=1;" parent="WIyWlLk6GJQsqaUBKTNV-1" vertex="1"><mxGeometry x="400" y="940" width="200" height="110" as="geometry"><mxRectangle x="130" y="380" width="160" height="26" as="alternateBounds"/></mxGeometry></mxCell><mxCell id="KQfQFiuWQVvw3QSnPw0U-57" value=" " style="text;align=left;verticalAlign=top;spacingLeft=4;spacingRight=4;overflow=hidden;rotatable=0;points=[[0,0.5],[1,0.5]];portConstraint=eastwest;" parent="KQfQFiuWQVvw3QSnPw0U-56" vertex="1"><mxGeometry y="40" width="200" height="26" as="geometry"/></mxCell><mxCell id="KQfQFiuWQVvw3QSnPw0U-59" value="" style="line;html=1;strokeWidth=1;align=left;verticalAlign=middle;spacingTop=-1;spacingLeft=3;spacingRight=3;rotatable=0;labelPosition=right;points=[];portConstraint=eastwest;" parent="KQfQFiuWQVvw3QSnPw0U-56" vertex="1"><mxGeometry y="66" width="200" height="8" as="geometry"/></mxCell><mxCell id="KQfQFiuWQVvw3QSnPw0U-62" value="AmazonNLHarvester" style="swimlane;fontStyle=0;align=center;verticalAlign=top;childLayout=stackLayout;horizontal=1;startSize=40;horizontalStack=0;resizeParent=1;resizeLast=0;collapsible=1;marginBottom=0;rounded=0;shadow=0;strokeWidth=1;" parent="WIyWlLk6GJQsqaUBKTNV-1" vertex="1"><mxGeometry x="610" y="940" width="200" height="110" as="geometry"><mxRectangle x="130" y="380" width="160" height="26" as="alternateBounds"/></mxGeometry></mxCell><mxCell id="KQfQFiuWQVvw3QSnPw0U-63" value=" " style="text;align=left;verticalAlign=top;spacingLeft=4;spacingRight=4;overflow=hidden;rotatable=0;points=[[0,0.5],[1,0.5]];portConstraint=eastwest;" parent="KQfQFiuWQVvw3QSnPw0U-62" vertex="1"><mxGeometry y="40" width="200" height="26" as="geometry"/></mxCell><mxCell id="KQfQFiuWQVvw3QSnPw0U-65" value="" style="line;html=1;strokeWidth=1;align=left;verticalAlign=middle;spacingTop=-1;spacingLeft=3;spacingRight=3;rotatable=0;labelPosition=right;points=[];portConstraint=eastwest;" parent="KQfQFiuWQVvw3QSnPw0U-62" vertex="1"><mxGeometry y="66" width="200" height="8" as="geometry"/></mxCell><mxCell id="KQfQFiuWQVvw3QSnPw0U-68" value="Extends" style="endArrow=block;endSize=16;endFill=0;html=1;rounded=0;exitX=0.5;exitY=0;exitDx=0;exitDy=0;entryX=0.25;entryY=1;entryDx=0;entryDy=0;" parent="WIyWlLk6GJQsqaUBKTNV-1" source="KQfQFiuWQVvw3QSnPw0U-56" target="KQfQFiuWQVvw3QSnPw0U-19" edge="1"><mxGeometry width="160" relative="1" as="geometry"><mxPoint x="400" y="670" as="sourcePoint"/><mxPoint x="400" y="530" as="targetPoint"/></mxGeometry></mxCell><mxCell id="KQfQFiuWQVvw3QSnPw0U-69" value="Extends" style="endArrow=block;endSize=16;endFill=0;html=1;rounded=0;exitX=0.5;exitY=0;exitDx=0;exitDy=0;entryX=0.75;entryY=1;entryDx=0;entryDy=0;" parent="WIyWlLk6GJQsqaUBKTNV-1" source="KQfQFiuWQVvw3QSnPw0U-62" target="KQfQFiuWQVvw3QSnPw0U-19" edge="1"><mxGeometry width="160" relative="1" as="geometry"><mxPoint x="660" y="720" as="sourcePoint"/><mxPoint x="660" y="580" as="targetPoint"/></mxGeometry></mxCell><mxCell id="KQfQFiuWQVvw3QSnPw0U-70" value="EbayUKHarvester" style="swimlane;fontStyle=0;align=center;verticalAlign=top;childLayout=stackLayout;horizontal=1;startSize=40;horizontalStack=0;resizeParent=1;resizeLast=0;collapsible=1;marginBottom=0;rounded=0;shadow=0;strokeWidth=1;" parent="WIyWlLk6GJQsqaUBKTNV-1" vertex="1"><mxGeometry x="850" y="940" width="200" height="110" as="geometry"><mxRectangle x="130" y="380" width="160" height="26" as="alternateBounds"/></mxGeometry></mxCell><mxCell id="KQfQFiuWQVvw3QSnPw0U-72" value=" " style="text;align=left;verticalAlign=top;spacingLeft=4;spacingRight=4;overflow=hidden;rotatable=0;points=[[0,0.5],[1,0.5]];portConstraint=eastwest;rounded=0;shadow=0;html=0;" parent="KQfQFiuWQVvw3QSnPw0U-70" vertex="1"><mxGeometry y="40" width="200" height="26" as="geometry"/></mxCell><mxCell id="KQfQFiuWQVvw3QSnPw0U-73" value="" style="line;html=1;strokeWidth=1;align=left;verticalAlign=middle;spacingTop=-1;spacingLeft=3;spacingRight=3;rotatable=0;labelPosition=right;points=[];portConstraint=eastwest;" parent="KQfQFiuWQVvw3QSnPw0U-70" vertex="1"><mxGeometry y="66" width="200" height="8" as="geometry"/></mxCell><mxCell id="KQfQFiuWQVvw3QSnPw0U-76" value="EbayUSHarvester" style="swimlane;fontStyle=0;align=center;verticalAlign=top;childLayout=stackLayout;horizontal=1;startSize=40;horizontalStack=0;resizeParent=1;resizeLast=0;collapsible=1;marginBottom=0;rounded=0;shadow=0;strokeWidth=1;" parent="WIyWlLk6GJQsqaUBKTNV-1" vertex="1"><mxGeometry x="1060" y="940" width="200" height="110" as="geometry"><mxRectangle x="130" y="380" width="160" height="26" as="alternateBounds"/></mxGeometry></mxCell><mxCell id="KQfQFiuWQVvw3QSnPw0U-77" value=" " style="text;align=left;verticalAlign=top;spacingLeft=4;spacingRight=4;overflow=hidden;rotatable=0;points=[[0,0.5],[1,0.5]];portConstraint=eastwest;" parent="KQfQFiuWQVvw3QSnPw0U-76" vertex="1"><mxGeometry y="40" width="200" height="26" as="geometry"/></mxCell><mxCell id="KQfQFiuWQVvw3QSnPw0U-79" value="" style="line;html=1;strokeWidth=1;align=left;verticalAlign=middle;spacingTop=-1;spacingLeft=3;spacingRight=3;rotatable=0;labelPosition=right;points=[];portConstraint=eastwest;" parent="KQfQFiuWQVvw3QSnPw0U-76" vertex="1"><mxGeometry y="66" width="200" height="8" as="geometry"/></mxCell><mxCell id="KQfQFiuWQVvw3QSnPw0U-82" value="Extends" style="endArrow=block;endSize=16;endFill=0;html=1;rounded=0;exitX=0.5;exitY=0;exitDx=0;exitDy=0;entryX=0;entryY=1;entryDx=0;entryDy=0;" parent="WIyWlLk6GJQsqaUBKTNV-1" source="KQfQFiuWQVvw3QSnPw0U-70" target="KQfQFiuWQVvw3QSnPw0U-25" edge="1"><mxGeometry width="160" relative="1" as="geometry"><mxPoint x="1105" y="1020" as="sourcePoint"/><mxPoint x="870" y="530" as="targetPoint"/></mxGeometry></mxCell><mxCell id="KQfQFiuWQVvw3QSnPw0U-83" value="Extends" style="endArrow=block;endSize=16;endFill=0;html=1;rounded=0;exitX=0.5;exitY=0;exitDx=0;exitDy=0;entryX=0.25;entryY=1;entryDx=0;entryDy=0;" parent="WIyWlLk6GJQsqaUBKTNV-1" source="KQfQFiuWQVvw3QSnPw0U-76" target="KQfQFiuWQVvw3QSnPw0U-25" edge="1"><mxGeometry width="160" relative="1" as="geometry"><mxPoint x="1295" y="1020" as="sourcePoint"/><mxPoint x="1060" y="530" as="targetPoint"/></mxGeometry></mxCell><mxCell id="KQfQFiuWQVvw3QSnPw0U-84" value="" style="endArrow=block;dashed=1;endFill=0;endSize=12;html=1;rounded=0;exitX=0.5;exitY=0;exitDx=0;exitDy=0;entryX=0.5;entryY=1;entryDx=0;entryDy=0;" parent="WIyWlLk6GJQsqaUBKTNV-1" source="zkfFHV4jXpPFQw0GAbJ--13" target="KQfQFiuWQVvw3QSnPw0U-7" edge="1"><mxGeometry width="160" relative="1" as="geometry"><mxPoint x="820" y="218" as="sourcePoint"/><mxPoint x="1122.5" y="100" as="targetPoint"/></mxGeometry></mxCell><mxCell id="KQfQFiuWQVvw3QSnPw0U-85" value="Implements" style="edgeLabel;html=1;align=center;verticalAlign=middle;resizable=0;points=[];" parent="KQfQFiuWQVvw3QSnPw0U-84" vertex="1" connectable="0"><mxGeometry x="-0.1287" y="-2" relative="1" as="geometry"><mxPoint as="offset"/></mxGeometry></mxCell><mxCell id="KQfQFiuWQVvw3QSnPw0U-86" value="EbayDynamicClass" style="swimlane;fontStyle=0;align=center;verticalAlign=top;childLayout=stackLayout;horizontal=1;startSize=40;horizontalStack=0;resizeParent=1;resizeLast=0;collapsible=1;marginBottom=0;rounded=0;shadow=0;strokeWidth=1;" parent="WIyWlLk6GJQsqaUBKTNV-1" vertex="1"><mxGeometry x="1300" y="940" width="500" height="160" as="geometry"><mxRectangle x="130" y="380" width="160" height="26" as="alternateBounds"/></mxGeometry></mxCell><mxCell id="KQfQFiuWQVvw3QSnPw0U-87" value=" " style="text;align=left;verticalAlign=top;spacingLeft=4;spacingRight=4;overflow=hidden;rotatable=0;points=[[0,0.5],[1,0.5]];portConstraint=eastwest;" parent="KQfQFiuWQVvw3QSnPw0U-86" vertex="1"><mxGeometry y="40" width="500" height="26" as="geometry"/></mxCell><mxCell id="KQfQFiuWQVvw3QSnPw0U-89" value="" style="line;html=1;strokeWidth=1;align=left;verticalAlign=middle;spacingTop=-1;spacingLeft=3;spacingRight=3;rotatable=0;labelPosition=right;points=[];portConstraint=eastwest;" parent="KQfQFiuWQVvw3QSnPw0U-86" vertex="1"><mxGeometry y="66" width="500" height="8" as="geometry"/></mxCell><mxCell id="KQfQFiuWQVvw3QSnPw0U-90" value="+ getClassValue(HtmlElement spanSponsored): String" style="text;align=left;verticalAlign=top;spacingLeft=4;spacingRight=4;overflow=hidden;rotatable=0;points=[[0,0.5],[1,0.5]];portConstraint=eastwest;fontStyle=0" parent="KQfQFiuWQVvw3QSnPw0U-86" vertex="1"><mxGeometry y="74" width="500" height="26" as="geometry"/></mxCell><mxCell id="KQfQFiuWQVvw3QSnPw0U-91" value="assignValueAndKey(HashMap&lt;String, Integer&gt; sponsoredClassNames, String classValue)" style="text;align=left;verticalAlign=top;spacingLeft=4;spacingRight=4;overflow=hidden;rotatable=0;points=[[0,0.5],[1,0.5]];portConstraint=eastwest;" parent="KQfQFiuWQVvw3QSnPw0U-86" vertex="1"><mxGeometry y="100" width="500" height="26" as="geometry"/></mxCell><mxCell id="KQfQFiuWQVvw3QSnPw0U-125" value="+ countingClassTimes(HashMap&lt;String, Integer&gt; hashMap): String" style="text;align=left;verticalAlign=top;spacingLeft=4;spacingRight=4;overflow=hidden;rotatable=0;points=[[0,0.5],[1,0.5]];portConstraint=eastwest;fontStyle=0" parent="KQfQFiuWQVvw3QSnPw0U-86" vertex="1"><mxGeometry y="126" width="500" height="26" as="geometry"/></mxCell><mxCell id="KQfQFiuWQVvw3QSnPw0U-124" value="" style="endArrow=open;endSize=16;endFill=0;html=1;rounded=0;exitX=0.5;exitY=1;exitDx=0;exitDy=0;entryX=0.25;entryY=0;entryDx=0;entryDy=0;" parent="WIyWlLk6GJQsqaUBKTNV-1" source="KQfQFiuWQVvw3QSnPw0U-25" target="KQfQFiuWQVvw3QSnPw0U-86" edge="1"><mxGeometry width="160" relative="1" as="geometry"><mxPoint x="1460" y="860" as="sourcePoint"/><mxPoint x="1569" y="510" as="targetPoint"/></mxGeometry></mxCell><mxCell id="KQfQFiuWQVvw3QSnPw0U-126" value="" style="endArrow=open;endSize=16;endFill=0;html=1;rounded=0;exitX=0.5;exitY=0;exitDx=0;exitDy=0;entryX=0;entryY=0;entryDx=0;entryDy=0;" parent="WIyWlLk6GJQsqaUBKTNV-1" source="KQfQFiuWQVvw3QSnPw0U-13" target="KQfQFiuWQVvw3QSnPw0U-7" edge="1"><mxGeometry width="160" relative="1" as="geometry"><mxPoint x="550" y="-70" as="sourcePoint"/><mxPoint x="1470" y="20" as="targetPoint"/></mxGeometry></mxCell><mxCell id="KQfQFiuWQVvw3QSnPw0U-127" value="" style="endArrow=open;endSize=16;endFill=0;html=1;rounded=0;exitX=0.5;exitY=0;exitDx=0;exitDy=0;entryX=0;entryY=0;entryDx=0;entryDy=0;" parent="WIyWlLk6GJQsqaUBKTNV-1" source="KQfQFiuWQVvw3QSnPw0U-19" target="KQfQFiuWQVvw3QSnPw0U-7" edge="1"><mxGeometry width="160" relative="1" as="geometry"><mxPoint x="916" y="-30" as="sourcePoint"/><mxPoint x="1450" y="50" as="targetPoint"/></mxGeometry></mxCell><mxCell id="KQfQFiuWQVvw3QSnPw0U-128" value="" style="endArrow=open;endSize=16;endFill=0;html=1;rounded=0;exitX=0.5;exitY=0;exitDx=0;exitDy=0;entryX=0;entryY=0;entryDx=0;entryDy=0;" parent="WIyWlLk6GJQsqaUBKTNV-1" source="KQfQFiuWQVvw3QSnPw0U-25" target="KQfQFiuWQVvw3QSnPw0U-7" edge="1"><mxGeometry width="160" relative="1" as="geometry"><mxPoint x="1037.5" y="-20" as="sourcePoint"/><mxPoint x="1362.5" y="270" as="targetPoint"/></mxGeometry></mxCell><mxCell id="KQfQFiuWQVvw3QSnPw0U-130" value="" style="edgeStyle=segmentEdgeStyle;endArrow=open;html=1;rounded=0;exitX=1;exitY=0.5;exitDx=0;exitDy=0;entryX=0.25;entryY=1;entryDx=0;entryDy=0;endFill=0;" parent="WIyWlLk6GJQsqaUBKTNV-1" source="KQfQFiuWQVvw3QSnPw0U-102" target="KQfQFiuWQVvw3QSnPw0U-7" edge="1"><mxGeometry width="50" height="50" relative="1" as="geometry"><mxPoint x="890" y="790" as="sourcePoint"/><mxPoint x="1590" y="710" as="targetPoint"/></mxGeometry></mxCell><mxCell id="KQfQFiuWQVvw3QSnPw0U-146" value="" style="endArrow=open;endSize=16;endFill=0;html=1;rounded=0;exitX=1;exitY=0;exitDx=0;exitDy=0;entryX=0;entryY=0;entryDx=0;entryDy=0;" parent="WIyWlLk6GJQsqaUBKTNV-1" source="zkfFHV4jXpPFQw0GAbJ--0" target="KQfQFiuWQVvw3QSnPw0U-7" edge="1"><mxGeometry width="160" relative="1" as="geometry"><mxPoint x="260" y="232" as="sourcePoint"/><mxPoint x="1520" y="-40" as="targetPoint"/></mxGeometry></mxCell><mxCell id="KQfQFiuWQVvw3QSnPw0U-147" value="Requests" style="swimlane;fontStyle=0;align=center;verticalAlign=top;childLayout=stackLayout;horizontal=1;startSize=40;horizontalStack=0;resizeParent=1;resizeLast=0;collapsible=1;marginBottom=0;rounded=0;shadow=0;strokeWidth=1;" parent="WIyWlLk6GJQsqaUBKTNV-1" vertex="1"><mxGeometry x="2110" y="70" width="330" height="152" as="geometry"><mxRectangle x="130" y="380" width="160" height="26" as="alternateBounds"/></mxGeometry></mxCell><mxCell id="KQfQFiuWQVvw3QSnPw0U-148" value=" " style="text;align=left;verticalAlign=top;spacingLeft=4;spacingRight=4;overflow=hidden;rotatable=0;points=[[0,0.5],[1,0.5]];portConstraint=eastwest;" parent="KQfQFiuWQVvw3QSnPw0U-147" vertex="1"><mxGeometry y="40" width="330" height="26" as="geometry"/></mxCell><mxCell id="KQfQFiuWQVvw3QSnPw0U-149" value="" style="line;html=1;strokeWidth=1;align=left;verticalAlign=middle;spacingTop=-1;spacingLeft=3;spacingRight=3;rotatable=0;labelPosition=right;points=[];portConstraint=eastwest;" parent="KQfQFiuWQVvw3QSnPw0U-147" vertex="1"><mxGeometry y="66" width="330" height="8" as="geometry"/></mxCell><mxCell id="KQfQFiuWQVvw3QSnPw0U-150" value="+ postADetection(List&lt;MarketplaceDetection&gt; detectionList)" style="text;align=left;verticalAlign=top;spacingLeft=4;spacingRight=4;overflow=hidden;rotatable=0;points=[[0,0.5],[1,0.5]];portConstraint=eastwest;fontStyle=0" parent="KQfQFiuWQVvw3QSnPw0U-147" vertex="1"><mxGeometry y="74" width="330" height="26" as="geometry"/></mxCell><mxCell id="KQfQFiuWQVvw3QSnPw0U-151" value="+ getBrandTracks(): ArrayList&lt;String&gt;" style="text;align=left;verticalAlign=top;spacingLeft=4;spacingRight=4;overflow=hidden;rotatable=0;points=[[0,0.5],[1,0.5]];portConstraint=eastwest;" parent="KQfQFiuWQVvw3QSnPw0U-147" vertex="1"><mxGeometry y="100" width="330" height="26" as="geometry"/></mxCell><mxCell id="1F-tgHn_0D5CHnwT6YAT-11" value="+ getCustomerIds(): ArrayList&lt;String&gt;" style="text;align=left;verticalAlign=top;spacingLeft=4;spacingRight=4;overflow=hidden;rotatable=0;points=[[0,0.5],[1,0.5]];portConstraint=eastwest;" parent="KQfQFiuWQVvw3QSnPw0U-147" vertex="1"><mxGeometry y="126" width="330" height="26" as="geometry"/></mxCell><mxCell id="KQfQFiuWQVvw3QSnPw0U-159" value="" style="endArrow=open;endSize=16;endFill=0;html=1;rounded=0;exitX=0.5;exitY=0;exitDx=0;exitDy=0;entryX=1;entryY=0;entryDx=0;entryDy=0;" parent="WIyWlLk6GJQsqaUBKTNV-1" source="KQfQFiuWQVvw3QSnPw0U-147" target="KQfQFiuWQVvw3QSnPw0U-7" edge="1"><mxGeometry width="160" relative="1" as="geometry"><mxPoint x="1780" y="170" as="sourcePoint"/><mxPoint x="2135" y="-110" as="targetPoint"/></mxGeometry></mxCell><mxCell id="1F-tgHn_0D5CHnwT6YAT-0" value="Exception" style="swimlane;fontStyle=0;align=center;verticalAlign=top;childLayout=stackLayout;horizontal=1;startSize=40;horizontalStack=0;resizeParent=1;resizeLast=0;collapsible=1;marginBottom=0;rounded=0;shadow=0;strokeWidth=1;" parent="WIyWlLk6GJQsqaUBKTNV-1" vertex="1"><mxGeometry x="1560" y="-230" width="320" height="90" as="geometry"><mxRectangle x="130" y="380" width="160" height="26" as="alternateBounds"/></mxGeometry></mxCell><mxCell id="1F-tgHn_0D5CHnwT6YAT-1" value=" " style="text;align=left;verticalAlign=top;spacingLeft=4;spacingRight=4;overflow=hidden;rotatable=0;points=[[0,0.5],[1,0.5]];portConstraint=eastwest;" parent="1F-tgHn_0D5CHnwT6YAT-0" vertex="1"><mxGeometry y="40" width="320" height="26" as="geometry"/></mxCell><mxCell id="1F-tgHn_0D5CHnwT6YAT-2" value="" style="line;html=1;strokeWidth=1;align=left;verticalAlign=middle;spacingTop=-1;spacingLeft=3;spacingRight=3;rotatable=0;labelPosition=right;points=[];portConstraint=eastwest;" parent="1F-tgHn_0D5CHnwT6YAT-0" vertex="1"><mxGeometry y="66" width="320" height="8" as="geometry"/></mxCell><mxCell id="1F-tgHn_0D5CHnwT6YAT-6" value="Extends" style="endArrow=block;endSize=16;endFill=0;html=1;rounded=0;exitX=0.5;exitY=0;exitDx=0;exitDy=0;entryX=0.5;entryY=1;entryDx=0;entryDy=0;" parent="WIyWlLk6GJQsqaUBKTNV-1" source="KQfQFiuWQVvw3QSnPw0U-7" target="1F-tgHn_0D5CHnwT6YAT-0" edge="1"><mxGeometry width="160" relative="1" as="geometry"><mxPoint x="1370" y="230" as="sourcePoint"/><mxPoint x="1467.5" y="-280" as="targetPoint"/></mxGeometry></mxCell></root></mxGraphModel></diagram></mxfile>